<?xml version="1.0" encoding="UTF-8" ?>
<!DOCTYPE svg PUBLIC "-//W3C//DTD SVG 1.1//EN" "http://www.w3.org/Graphics/SVG/1.1/DTD/svg11.dtd">
<svg width="296pt" height="249pt" viewBox="0 0 296 249" version="1.1" xmlns="http://www.w3.org/2000/svg">
<path fill="#ffffff" d=" M 0.00 0.00 L 296.00 0.00 L 296.00 249.00 L 0.00 249.00 L 0.00 144.61 C 1.34 147.74 2.85 151.22 6.01 152.92 C 10.24 155.08 16.33 154.39 18.99 150.11 C 20.64 148.45 21.44 145.36 24.08 145.13 C 28.71 144.63 33.36 145.05 38.00 145.00 C 56.67 144.99 75.33 145.02 94.00 144.99 C 98.54 145.06 103.15 144.49 107.65 145.34 C 110.20 146.73 111.76 149.43 114.35 150.78 C 118.81 152.29 124.01 148.67 124.09 143.95 C 124.65 138.89 119.14 134.58 114.35 136.20 C 111.81 137.60 110.05 140.02 107.60 141.55 C 104.81 142.34 101.85 142.05 98.99 142.09 C 84.59 141.78 70.19 142.27 55.80 141.87 C 59.49 136.90 63.60 132.24 67.76 127.66 C 70.17 124.38 74.48 126.90 77.71 125.75 C 80.07 124.40 81.83 122.18 84.27 120.97 C 88.79 120.05 93.43 120.67 98.00 120.59 C 124.69 120.60 151.39 120.64 178.08 120.55 C 182.87 120.11 185.31 125.06 189.40 126.48 C 193.85 127.33 198.27 123.48 198.09 118.95 C 198.74 113.91 193.06 110.07 188.50 111.50 C 184.91 113.32 182.66 117.93 178.08 117.34 C 147.70 117.23 117.31 117.30 86.93 117.31 C 82.71 117.65 80.81 113.16 77.39 111.64 C 74.22 110.51 70.45 112.00 68.78 114.88 C 67.56 117.78 68.10 121.09 66.98 124.01 C 64.87 127.42 61.70 129.99 59.19 133.09 C 56.63 135.87 54.53 139.16 51.45 141.41 C 46.76 142.70 41.80 141.84 37.01 142.02 C 32.22 141.83 27.29 142.69 22.59 141.49 C 20.07 138.99 18.72 135.20 15.32 133.68 C 11.74 132.34 7.21 132.58 4.32 135.29 C 2.50 137.01 1.22 139.19 0.00 141.35 L 0.00 0.00 Z" />
<path fill="#7b6b68" d=" M 25.52 13.49 C 22.22 8.52 26.94 0.94 32.91 2.02 C 36.57 2.03 37.89 5.83 40.36 7.73 C 45.87 8.47 51.46 7.83 57.00 7.99 C 62.24 7.85 67.52 8.45 72.73 7.73 C 75.71 6.14 77.10 1.67 81.03 1.95 C 86.63 1.22 90.99 8.31 88.03 13.02 C 86.66 15.99 83.31 17.66 80.11 16.98 C 75.96 16.86 75.16 10.94 71.03 11.03 C 63.44 10.84 55.84 11.09 48.25 10.95 C 51.17 15.05 51.00 20.08 51.22 24.87 C 51.50 29.21 56.12 30.56 59.56 31.67 C 59.63 32.25 59.78 33.40 59.86 33.97 C 56.46 34.03 52.89 33.09 50.73 30.28 C 46.88 26.04 48.97 19.84 47.15 14.89 C 45.79 12.76 43.12 10.41 40.43 11.28 C 38.69 12.91 37.42 15.00 35.54 16.50 C 32.08 17.81 27.19 17.29 25.52 13.49 Z" />
<path fill="#ffffff" d=" M 28.53 6.68 C 29.88 4.54 33.21 4.29 34.92 6.10 C 37.01 7.76 36.17 10.64 36.11 12.91 C 34.26 13.49 32.31 14.75 30.34 13.92 C 27.25 13.16 26.31 8.84 28.53 6.68 Z" />
<path fill="#ffffff" d=" M 79.37 5.14 C 83.18 3.67 87.87 8.50 85.22 12.06 C 83.65 15.64 77.45 14.67 76.81 10.85 C 76.17 8.60 77.32 6.20 79.37 5.14 Z" />
<path fill="#7b6b68" d=" M 135.04 11.00 C 136.64 8.24 140.15 8.24 142.95 8.19 C 151.64 8.24 160.34 8.31 169.03 8.18 C 171.96 8.30 175.48 7.96 177.69 10.30 C 180.34 13.46 178.65 18.41 181.56 21.43 C 183.02 23.07 184.48 24.80 186.39 25.92 C 192.05 27.43 199.03 24.90 203.83 29.16 C 208.17 32.84 206.89 39.00 207.04 44.00 C 207.14 58.53 206.70 73.08 207.23 87.60 C 209.88 89.83 213.90 91.93 213.24 96.03 C 213.48 99.12 210.90 101.14 209.05 103.20 C 213.70 109.07 219.00 114.38 223.82 120.11 C 226.21 122.71 228.29 125.73 231.31 127.66 C 237.63 128.42 244.09 128.15 250.44 127.70 C 252.08 123.83 254.55 119.64 259.19 119.17 C 266.94 117.15 274.22 126.03 271.23 133.28 C 269.03 139.78 260.19 142.22 254.81 138.19 C 252.70 136.18 251.37 133.53 249.78 131.13 C 243.54 130.61 237.27 131.41 231.04 130.86 C 229.20 130.87 228.04 129.31 226.89 128.12 C 220.59 120.77 214.03 113.65 207.73 106.30 C 204.89 102.76 198.85 101.90 198.25 96.75 C 197.20 92.54 201.26 90.16 203.65 87.52 C 204.54 85.49 204.21 83.17 204.32 81.00 C 204.11 73.61 204.51 66.21 204.06 58.83 C 194.38 58.25 184.68 58.81 175.00 58.58 C 171.78 58.64 168.48 58.20 165.33 59.01 C 162.63 61.23 160.36 65.14 156.30 64.45 C 151.82 64.41 150.58 58.18 146.05 58.59 C 133.71 58.50 121.37 58.82 109.04 58.40 C 108.92 68.28 109.09 78.17 108.95 88.05 C 109.07 90.50 108.79 93.42 110.73 95.28 C 112.87 97.46 116.17 97.18 118.97 97.31 C 136.99 97.17 155.01 97.34 173.04 97.20 C 175.10 97.23 177.21 97.20 179.24 97.68 C 180.88 99.53 177.37 100.56 175.93 100.58 C 157.61 100.70 139.28 100.53 120.96 100.65 C 116.53 100.55 111.31 100.44 108.22 96.76 C 105.80 94.13 105.96 90.34 105.92 87.01 C 106.09 70.32 105.93 53.63 105.98 36.94 C 105.73 32.49 108.79 28.11 113.20 27.16 C 119.75 25.63 126.54 26.87 133.19 26.19 C 133.82 21.17 132.28 15.54 135.04 11.00 Z" />
<path fill="#ffffff" d=" M 137.17 13.36 C 138.24 10.62 141.59 11.04 143.96 10.95 C 153.30 11.13 162.65 10.85 171.99 11.06 C 175.21 10.79 176.70 14.30 176.50 17.02 C 176.76 20.38 173.49 22.33 171.48 24.50 C 169.39 27.01 165.88 26.36 163.00 26.47 C 154.28 26.17 145.54 26.74 136.83 26.17 C 136.57 21.92 136.03 17.53 137.17 13.36 Z" />
<path fill="#ffffff" d=" M 175.35 24.11 C 177.69 23.21 181.10 23.27 182.23 25.94 C 184.76 29.41 179.40 34.76 175.93 32.23 C 172.89 30.94 172.82 25.89 175.35 24.11 Z" />
<path fill="#7b6b68" d=" M 65.90 24.90 C 68.87 26.21 71.13 28.60 73.76 30.44 C 75.99 28.32 78.23 26.12 81.10 24.90 C 80.57 28.25 77.90 30.50 75.82 32.95 C 77.88 35.17 79.99 37.43 81.25 40.23 C 78.00 39.67 75.82 37.10 73.33 35.19 C 71.12 37.29 68.93 39.73 65.75 40.23 C 67.01 37.43 69.12 35.17 71.18 32.95 C 69.11 30.49 66.42 28.25 65.90 24.90 Z" />
<path fill="#ffffff" d=" M 109.17 35.13 C 109.37 31.24 113.55 29.51 116.95 29.75 C 132.64 29.68 148.32 29.86 164.00 29.68 C 165.90 29.71 167.84 29.61 169.70 30.09 C 172.37 32.06 174.22 35.86 177.99 35.76 C 181.85 35.98 183.79 32.25 186.35 30.10 C 190.49 29.32 194.77 29.57 198.95 29.93 C 202.01 30.04 203.91 33.24 204.09 36.03 C 204.51 42.36 204.34 48.72 204.05 55.06 C 194.71 55.56 185.35 55.08 176.00 55.27 C 172.44 55.21 168.82 55.66 165.31 54.91 C 162.52 52.75 160.34 48.61 156.21 49.30 C 151.85 49.61 150.62 55.77 146.05 55.27 C 133.74 55.15 121.42 55.51 109.12 55.06 C 109.00 48.42 108.74 41.76 109.17 35.13 Z" />
<path fill="#7b6b68" d=" M 225.54 44.77 C 225.50 42.99 225.91 40.26 228.25 40.35 C 234.67 39.80 241.02 41.63 246.82 44.27 C 250.41 46.08 254.20 42.07 257.82 44.13 C 263.36 46.03 263.68 55.00 258.60 57.61 C 255.21 59.82 250.10 58.46 248.09 55.00 C 247.12 52.81 247.37 50.34 247.29 48.01 C 241.93 44.12 235.10 43.53 228.70 43.27 C 229.01 47.94 228.49 53.33 231.57 57.22 C 233.14 56.17 234.68 54.89 236.60 54.54 C 237.24 57.25 234.09 58.99 232.81 61.07 C 235.08 65.32 238.18 69.11 241.90 72.18 C 243.77 73.88 246.03 75.29 247.32 77.51 C 248.15 81.88 247.75 86.37 248.15 90.79 C 252.71 93.73 257.45 96.38 262.18 99.05 C 264.24 94.83 261.24 90.46 260.57 86.24 C 263.98 82.44 267.63 78.87 271.39 75.42 C 275.64 75.94 279.89 78.92 284.15 77.13 C 281.81 72.23 279.06 67.51 275.84 63.13 C 270.77 62.55 265.39 63.17 260.68 60.83 C 261.71 60.12 262.74 59.18 264.11 59.35 C 268.70 59.28 273.26 59.90 277.82 60.26 C 281.47 65.51 284.63 71.13 287.25 76.96 C 285.77 78.53 284.50 81.27 281.95 80.93 C 278.61 80.42 275.46 79.13 272.21 78.27 C 269.09 80.91 266.20 83.81 263.71 87.06 C 264.48 90.34 265.68 93.54 265.95 96.92 C 266.00 99.31 263.51 100.40 261.90 101.67 C 256.23 99.18 250.47 96.36 245.80 92.25 C 243.53 87.23 246.89 80.00 241.95 76.01 C 237.57 72.07 233.21 67.95 230.30 62.76 C 227.13 57.33 225.83 51.00 225.54 44.77 Z" />
<path fill="#ffffff" d=" M 252.32 47.11 C 254.68 46.41 258.09 46.21 259.23 48.93 C 262.01 52.53 256.53 58.02 252.93 55.23 C 249.92 53.88 249.77 48.95 252.32 47.11 Z" />
<path fill="#7b6b68" d=" M 19.29 47.98 C 23.02 47.87 23.48 51.82 24.41 54.57 C 25.94 59.75 27.52 64.91 29.34 69.99 C 39.28 71.37 49.40 69.30 59.30 71.02 C 59.23 74.26 55.27 73.64 53.04 73.80 C 44.57 73.48 36.08 74.16 27.63 73.43 C 24.69 66.72 23.19 59.52 20.64 52.68 C 18.14 57.47 16.68 62.71 15.23 67.90 C 17.69 70.70 21.00 74.24 19.27 78.27 C 18.13 82.23 13.68 82.86 10.35 83.99 C 16.15 89.18 22.72 93.41 28.83 98.22 C 32.44 100.96 35.91 103.94 39.91 106.13 C 45.42 102.30 50.63 98.05 56.05 94.09 C 60.38 90.69 65.07 87.76 69.11 84.00 C 68.27 80.90 67.32 77.84 66.26 74.82 C 63.67 67.43 62.06 59.70 58.85 52.54 C 56.37 56.75 55.04 61.49 52.67 65.75 C 51.87 65.53 51.07 65.30 50.28 65.07 C 52.29 59.25 54.74 53.58 57.53 48.09 C 58.81 48.40 60.51 48.37 61.08 49.85 C 63.82 55.59 64.87 61.96 67.02 67.93 C 68.66 73.54 71.28 78.96 71.84 84.83 C 70.59 87.17 68.16 88.55 66.18 90.20 C 57.38 96.70 48.77 103.46 39.89 109.84 C 33.35 105.96 27.67 100.85 21.48 96.47 C 17.43 93.17 12.82 90.53 9.08 86.87 C 7.41 84.11 6.38 81.01 4.95 78.12 C 3.74 76.06 4.43 73.54 5.67 71.67 C 7.49 69.42 10.75 68.77 12.35 66.34 C 15.14 60.40 15.80 53.61 19.29 47.98 Z" />
<path fill="#ffffff" d=" M 156.29 52.17 C 159.57 51.61 163.16 55.75 161.15 58.88 C 160.27 61.80 156.69 61.71 154.33 60.90 C 151.26 58.59 152.26 52.83 156.29 52.17 Z" />
<path fill="#ffffff" d=" M 11.27 71.16 C 14.34 70.64 17.26 73.80 16.34 76.90 C 16.27 81.50 8.19 81.56 7.57 77.18 C 6.40 74.52 8.74 71.79 11.27 71.16 Z" />
<path fill="#ffffff" d=" M 204.35 91.20 C 207.19 90.35 210.93 92.80 210.29 95.99 C 210.47 100.37 203.53 102.03 201.77 98.06 C 199.84 95.50 201.85 92.37 204.35 91.20 Z" />
<path fill="#7b6b68" d=" M 68.78 114.88 C 70.45 112.00 74.22 110.51 77.39 111.64 C 80.81 113.16 82.71 117.65 86.93 117.31 C 117.31 117.30 147.70 117.23 178.08 117.34 C 182.66 117.93 184.91 113.32 188.50 111.50 C 193.06 110.07 198.74 113.91 198.09 118.95 C 198.27 123.48 193.85 127.33 189.40 126.48 C 185.31 125.06 182.87 120.11 178.08 120.55 C 151.39 120.64 124.69 120.60 98.00 120.59 C 93.43 120.67 88.79 120.05 84.27 120.97 C 81.83 122.18 80.07 124.40 77.71 125.75 C 74.48 126.90 70.17 124.38 67.76 127.66 C 63.60 132.24 59.49 136.90 55.80 141.87 C 70.19 142.27 84.59 141.78 98.99 142.09 C 101.85 142.05 104.81 142.34 107.60 141.55 C 110.05 140.02 111.81 137.60 114.35 136.20 C 119.14 134.58 124.65 138.89 124.09 143.95 C 124.01 148.67 118.81 152.29 114.35 150.78 C 111.76 149.43 110.20 146.73 107.65 145.34 C 103.15 144.49 98.54 145.06 94.00 144.99 C 75.33 145.02 56.67 144.99 38.00 145.00 C 33.36 145.05 28.71 144.63 24.08 145.13 C 21.44 145.36 20.64 148.45 18.99 150.11 C 16.33 154.39 10.24 155.08 6.01 152.92 C 2.85 151.22 1.34 147.74 0.00 144.61 L 0.00 141.35 C 1.22 139.19 2.50 137.01 4.32 135.29 C 7.21 132.58 11.74 132.34 15.32 133.68 C 18.72 135.20 20.07 138.99 22.59 141.49 C 27.29 142.69 32.22 141.83 37.01 142.02 C 41.80 141.84 46.76 142.70 51.45 141.41 C 54.53 139.16 56.63 135.87 59.19 133.09 C 61.70 129.99 64.87 127.42 66.98 124.01 C 68.10 121.09 67.56 117.78 68.78 114.88 Z" />
<path fill="#ffffff" d=" M 74.29 114.17 C 77.59 113.58 81.17 117.75 79.16 120.89 C 78.29 123.83 74.70 123.67 72.32 122.91 C 69.26 120.61 70.24 114.80 74.29 114.17 Z" />
<path fill="#ffffff" d=" M 189.30 114.16 C 193.23 112.84 196.67 118.07 194.40 121.30 C 192.58 124.32 187.46 123.92 186.10 120.69 C 185.37 118.11 186.49 114.85 189.30 114.16 Z" />
<path fill="#ffffff" d=" M 258.39 122.32 C 263.37 120.30 269.52 124.52 269.08 129.96 C 268.91 135.09 263.04 138.67 258.33 136.83 C 251.95 134.87 252.00 124.29 258.39 122.32 Z" />
<path fill="#ffffff" d=" M 8.33 136.18 C 13.85 133.92 20.82 139.60 18.62 145.46 C 17.50 150.83 10.46 152.77 6.26 149.74 C 1.99 146.27 2.78 137.90 8.33 136.18 Z" />
<path fill="#ffffff" d=" M 114.39 139.17 C 117.59 137.83 121.83 140.19 121.10 143.94 C 121.22 147.46 117.15 148.84 114.28 147.89 C 111.54 145.81 110.79 140.81 114.39 139.17 Z" />
<path fill="#7b6b68" d=" M 217.08 149.14 C 227.17 146.74 238.25 149.33 246.43 155.63 C 251.45 159.20 254.39 164.71 257.27 169.98 C 262.26 169.97 267.38 169.43 272.25 170.85 C 282.12 173.65 290.67 181.47 293.54 191.43 C 297.12 203.11 292.80 216.70 283.17 224.20 C 277.25 228.97 269.55 231.11 262.02 231.00 C 228.35 230.99 194.67 231.00 161.00 231.00 C 156.51 230.96 152.01 230.82 147.53 231.24 C 146.35 234.97 144.87 239.30 140.83 240.80 C 134.27 243.98 125.48 238.37 125.92 231.00 C 125.48 223.86 133.53 218.23 140.13 220.88 C 143.43 222.00 145.19 225.28 147.34 227.79 C 152.55 228.26 157.78 227.97 163.00 227.99 C 196.35 228.02 229.69 227.97 263.04 228.03 C 269.46 228.01 275.90 226.00 281.06 222.17 C 288.13 216.83 292.05 207.86 291.92 199.09 C 291.52 185.81 280.23 173.84 267.00 172.69 C 259.43 171.83 251.40 174.66 246.31 180.38 C 242.69 185.05 239.94 190.70 239.75 196.70 C 241.93 198.67 244.87 200.37 245.56 203.45 C 246.86 208.69 240.95 213.93 235.89 212.12 C 232.20 211.14 229.96 207.07 230.51 203.41 C 231.45 199.45 236.65 198.29 237.22 194.12 C 238.36 189.42 239.70 184.61 242.73 180.73 C 245.63 176.39 250.32 173.87 254.49 170.95 C 249.07 155.45 230.00 147.15 214.78 152.77 C 204.42 155.89 196.23 164.93 194.10 175.52 C 195.91 177.13 198.03 178.54 199.23 180.70 C 200.89 184.51 198.68 189.43 194.79 190.82 C 190.88 191.33 186.81 189.22 183.04 190.92 C 179.48 192.43 176.58 195.16 174.21 198.16 C 171.24 201.85 171.03 206.77 169.83 211.17 C 169.27 211.00 168.16 210.67 167.61 210.51 C 167.37 202.99 170.96 195.55 177.05 191.12 C 179.45 189.51 182.08 188.28 184.59 186.86 C 184.63 184.62 184.52 182.33 185.15 180.15 C 186.40 178.12 188.69 177.04 190.29 175.30 C 191.94 172.40 192.51 169.02 194.13 166.09 C 198.86 157.47 207.46 151.16 217.08 149.14 Z" />
<path fill="#7b6b68" d=" M 30.85 159.89 C 31.80 156.17 35.91 153.96 39.59 154.49 C 43.46 155.27 44.65 160.84 48.96 160.42 C 61.60 160.52 74.25 160.24 86.89 160.44 C 91.47 160.32 95.94 163.75 96.38 168.42 C 96.85 173.36 97.23 178.65 95.31 183.34 C 93.80 186.95 89.68 188.17 86.07 188.02 C 61.36 187.99 36.64 187.98 11.93 188.02 C 8.10 188.20 3.66 186.75 2.22 182.84 C 0.75 178.20 0.98 173.17 1.57 168.40 C 2.05 164.43 5.42 161.00 9.43 160.63 C 14.76 160.03 20.15 160.30 25.49 160.63 C 25.50 161.55 25.50 162.47 25.48 163.39 C 20.02 163.92 14.52 163.24 9.07 163.83 C 6.80 163.88 4.81 165.77 4.78 168.06 C 4.37 172.91 4.17 177.89 5.18 182.67 C 6.66 184.88 9.56 184.97 11.94 185.04 C 36.64 184.98 61.35 184.97 86.05 185.05 C 88.63 185.06 92.21 184.76 92.86 181.67 C 93.85 176.94 93.72 171.98 93.03 167.21 C 92.41 164.00 88.69 163.58 86.01 163.59 C 75.01 163.51 64.00 163.72 53.00 163.53 C 50.79 163.57 48.50 163.36 46.35 164.00 C 43.84 165.89 42.18 169.32 38.77 169.71 C 33.74 170.22 29.19 164.73 30.85 159.89 Z" />
<path fill="#7b6b68" d=" M 148.94 159.99 C 150.97 158.03 153.05 153.65 156.27 154.69 C 156.99 162.58 156.67 170.57 156.39 178.49 C 155.46 178.50 154.53 178.49 153.61 178.48 C 153.12 172.44 153.56 166.38 153.33 160.33 C 152.17 160.74 151.02 161.15 149.87 161.56 C 149.64 161.17 149.17 160.38 148.94 159.99 Z" />
<path fill="#ffffff" d=" M 37.30 157.17 C 40.60 156.55 44.48 161.00 42.23 164.05 C 41.11 166.76 37.69 166.74 35.33 165.91 C 32.25 163.63 33.32 157.84 37.30 157.17 Z" />
<path fill="#7b6b68" d=" M 141.28 159.71 C 142.19 161.65 142.88 163.68 143.44 165.74 C 145.11 166.16 146.78 166.56 148.46 166.96 C 148.46 167.65 148.46 168.34 148.45 169.04 C 146.76 169.44 145.07 169.84 143.38 170.25 C 142.94 171.89 142.51 173.52 142.07 175.16 C 141.68 175.38 140.90 175.81 140.51 176.03 C 140.19 174.11 139.89 172.18 139.59 170.26 C 137.89 169.27 133.65 170.01 134.07 167.36 C 135.79 166.65 137.61 166.22 139.40 165.68 C 139.99 163.68 140.57 161.68 141.28 159.71 Z" />
<path fill="#7b6b68" d=" M 71.18 169.13 C 73.41 166.09 78.05 165.98 80.98 168.04 C 84.12 169.96 84.73 174.33 83.53 177.55 C 81.80 180.98 77.27 182.79 73.70 181.26 C 71.29 180.03 70.17 177.19 67.77 176.00 C 63.22 175.30 58.59 175.82 54.00 175.72 C 40.74 175.66 27.48 175.83 14.22 175.68 C 14.16 175.04 14.04 173.76 13.97 173.12 C 31.32 172.77 48.68 173.18 66.03 172.97 C 68.62 173.28 69.70 170.71 71.18 169.13 Z" />
<path fill="#ffffff" d=" M 74.37 170.09 C 77.15 168.69 81.40 170.61 81.08 174.00 C 81.36 177.03 78.26 179.80 75.30 178.84 C 71.41 177.91 70.63 171.77 74.37 170.09 Z" />
<path fill="#ffffff" d=" M 190.33 179.15 C 194.95 177.14 198.59 183.83 194.99 186.95 C 192.15 189.90 187.12 186.93 187.30 183.17 C 187.44 181.36 188.39 179.52 190.33 179.15 Z" />
<path fill="#7b6b68" d=" M 94.02 204.97 C 98.24 205.14 98.71 198.84 103.09 199.03 C 108.98 197.56 114.01 204.95 111.02 210.01 C 109.56 213.40 105.61 214.83 102.17 213.84 C 98.43 213.38 97.95 207.82 94.01 208.03 C 85.68 207.82 77.34 208.13 69.00 207.96 C 62.20 207.99 54.71 207.87 49.00 212.15 C 49.00 212.83 49.01 214.18 49.01 214.86 C 55.84 219.69 64.94 219.83 72.82 217.96 C 76.64 217.28 78.90 213.89 81.86 211.75 C 83.03 217.43 82.64 223.26 82.64 229.03 C 82.52 232.08 82.49 235.77 79.74 237.75 C 75.80 240.59 70.79 241.45 66.04 241.71 C 55.68 241.90 45.31 241.53 34.96 241.75 C 31.32 241.58 30.18 245.83 27.32 247.28 C 23.96 249.08 19.81 247.14 17.78 244.23 C 15.08 239.64 18.22 232.42 24.04 232.90 C 28.08 232.25 30.23 236.13 32.40 238.78 C 41.92 239.36 51.47 238.80 61.00 239.03 C 67.07 238.82 74.08 239.00 78.90 234.72 C 79.35 232.82 79.23 230.86 79.28 228.93 C 74.23 230.16 69.26 232.10 64.00 232.02 C 58.92 232.09 54.10 230.31 49.27 228.98 C 49.05 230.93 48.86 232.88 48.65 234.83 C 48.02 234.88 46.76 234.97 46.13 235.01 C 46.10 227.16 45.44 219.21 46.43 211.42 C 49.48 206.67 55.72 205.60 60.93 205.12 C 71.95 204.71 83.00 205.24 94.02 204.97 Z" />
<path fill="#ffffff" d=" M 238.18 200.26 C 241.25 200.28 244.26 204.32 242.24 207.08 C 241.14 209.82 237.68 209.73 235.33 208.91 C 231.92 206.40 233.62 200.06 238.18 200.26 Z" />
<path fill="#ffffff" d=" M 102.35 202.11 C 105.20 201.26 108.75 202.90 109.02 206.09 C 109.50 209.85 104.69 212.43 101.70 210.41 C 98.70 208.56 99.19 203.55 102.35 202.11 Z" />
<path fill="#ffffff" d=" M 48.95 218.92 C 53.90 220.21 58.81 222.10 64.00 222.02 C 69.27 222.10 74.24 220.16 79.28 218.94 C 79.23 220.86 79.35 222.82 78.90 224.71 C 75.70 227.79 71.02 228.39 66.80 228.86 C 60.70 229.15 54.24 228.30 49.02 224.91 C 49.00 222.91 48.97 220.91 48.95 218.92 Z" />
<path fill="#ffffff" d=" M 133.35 224.09 C 137.78 222.25 144.02 224.84 144.19 230.08 C 145.22 235.64 138.97 240.67 133.80 238.37 C 127.55 236.57 127.02 226.10 133.35 224.09 Z" />
<path fill="#ffffff" d=" M 22.31 236.09 C 24.73 235.21 27.78 235.90 28.58 238.62 C 30.49 242.13 26.13 246.48 22.62 244.59 C 18.78 243.52 18.84 237.60 22.31 236.09 Z" />
</svg>
